<?xml version="1.0" standalone="no"?>
<!DOCTYPE svg PUBLIC "-//W3C//DTD SVG 20010904//EN"
 "http://www.w3.org/TR/2001/REC-SVG-20010904/DTD/svg10.dtd">
<svg version="1.0" xmlns="http://www.w3.org/2000/svg"
 width="515.000000pt" height="515.000000pt" viewBox="0 0 515.000000 515.000000"
 preserveAspectRatio="xMidYMid meet">
<metadata>
Created by potrace 1.14, written by Peter Selinger 2001-2017
</metadata>
<g transform="translate(0.000000,515.000000) scale(0.100000,-0.100000)"
fill="#000000" stroke="none">
<path d="M13 2576 l2 -2571 240 -2 240 -3 0 1523 c0 1097 3 1553 11 1632 73
685 588 1277 1259 1450 88 22 120 29 200 40 22 4 51 8 65 10 l25 4 -1 -2317
c0 -1274 2 -2323 4 -2330 3 -9 60 -12 242 -12 l237 1 -1 2572 -1 2571 -260 0
c-353 -1 -439 -8 -630 -50 -261 -58 -519 -190 -773 -396 -82 -66 -270 -251
-338 -332 l-41 -48 1 406 c1 224 -1 411 -4 415 -3 4 -112 7 -242 7 l-237 0 2
-2570z"/>
<path d="M2666 3370 c-3 -5 0 -470 3 -480 0 -3 436 -5 969 -5 532 0 974 -1
982 -3 14 -3 16 -106 15 -930 l0 -927 -737 -3 c-701 -2 -738 -2 -739 15 -1 10
-2 317 -3 683 l-1 665 -245 0 -245 0 0 -931 0 -931 1010 2 c555 1 1011 3 1013
5 2 3 4 3 57 14 119 23 272 143 327 256 60 124 58 85 58 1155 0 769 -3 992
-13 1035 -34 143 -129 264 -259 328 -46 23 -101 44 -123 48 -47 8 -2065 12
-2069 4z"/>
</g>
</svg>
