<?xml version="1.0" standalone="no"?>
<!DOCTYPE svg PUBLIC "-//W3C//DTD SVG 20010904//EN"
 "http://www.w3.org/TR/2001/REC-SVG-20010904/DTD/svg10.dtd">
<svg version="1.0" xmlns="http://www.w3.org/2000/svg"
 width="512.000000pt" height="512.000000pt" viewBox="0 0 512.000000 512.000000"
 preserveAspectRatio="xMidYMid meet">
<metadata>
Created by potrace 1.14, written by Peter Selinger 2001-2017
</metadata>
<g transform="translate(0.000000,512.000000) scale(0.100000,-0.100000)"
fill="#000000" stroke="none">
<path d="M4 2561 l1 -2556 240 -3 240 -2 1 1512 c0 832 3 1545 7 1583 29 312
143 601 337 860 179 238 433 434 714 550 79 32 237 81 293 91 15 2 51 9 78 14
28 5 68 10 90 12 l40 3 0 -2313 0 -2312 243 0 242 0 0 2554 c0 2034 -3 2555
-12 2558 -41 13 -649 -2 -730 -17 -12 -3 -40 -7 -63 -10 -127 -19 -324 -84
-467 -156 -110 -55 -282 -168 -396 -261 -81 -66 -270 -250 -337 -331 l-41 -48
1 413 0 413 -241 1 -241 1 1 -2556z"/>
<path d="M2656 3340 c-2 -3 -3 -113 -2 -244 l1 -240 985 -1 985 -1 1 -932 0
-931 -737 -1 c-697 0 -737 1 -740 17 -3 10 -4 318 -3 684 l0 666 -246 0 -246
0 1 -926 c1 -509 3 -929 4 -932 0 -3 454 -5 1009 -5 919 2 1012 3 1069 19 164
46 280 152 354 322 24 56 27 169 25 1113 -2 951 -3 1010 -20 1056 -30 79 -67
138 -121 192 -63 63 -111 94 -195 124 l-65 24 -1028 1 c-566 0 -1030 -2 -1031
-5z"/>
</g>
</svg>
